<?xml version="1.0" encoding="UTF-8" standalone="no"?>
<!DOCTYPE svg PUBLIC "-//W3C//DTD SVG 1.1//EN" "http://www.w3.org/Graphics/SVG/1.1/DTD/svg11.dtd">
<svg width="100%" height="100%" viewBox="0 0 313 303" version="1.1" xmlns="http://www.w3.org/2000/svg" xmlns:xlink="http://www.w3.org/1999/xlink" xml:space="preserve" style="fill-rule:evenodd;clip-rule:evenodd;stroke-linejoin:round;stroke-miterlimit:1.41421;">
    <g transform="matrix(4.16667,0,0,4.16667,-41.6583,-44.1625)">
        <path d="M14.748,39L83.252,23.943L80.319,10.599L9.998,26.056L12.931,39.4L13,39.384L13,83.25L85,83.25L85,45.727L85,39.023L85,39L14.748,39ZM59.037,28.242L52.491,29.68L60.052,16.077L66.598,14.639L59.037,28.242ZM72.627,13.314L77.656,12.209L70.095,25.812L65.065,26.917L72.627,13.314ZM46.463,31.005L40.055,32.413L47.616,18.81L54.023,17.402L46.463,31.005ZM34.027,33.739L27.708,35.128L35.269,21.525L41.588,20.136L34.027,33.739ZM21.679,36.453L15.254,37.865L22.815,24.262L29.239,22.85L21.679,36.453ZM76.124,24.486L80.584,16.462L82.061,23.181L76.124,24.486ZM16.787,25.587L12.581,33.153L11.188,26.817L16.787,25.587ZM14,40.991L14.856,40.022L21.566,40.022L17.41,44.726L14,44.726L14,40.991ZM27.737,40.022L34.207,40.022L30.051,44.726L23.58,44.726L27.737,40.022ZM40.379,40.022L46.941,40.022L42.785,44.726L36.223,44.726L40.379,40.022ZM53.113,40.022L59.815,40.022L55.659,44.726L48.956,44.726L53.113,40.022ZM65.988,40.022L71.137,40.022L66.981,44.726L61.831,44.726L65.988,40.022ZM77.311,40.022L83.638,40.022L79.482,44.726L73.154,44.726L77.311,40.022ZM65.75,66.775L65.75,82.25L64.833,82.25L64.833,66.775L33.167,66.775L33.167,82.25L32.25,82.25L32.25,66.775L14,66.775L14,65.75L84,65.75L84,66.775L65.75,66.775ZM84,46.607L14,46.607L14,45.726L84,45.726L84,46.607Z" style="fill:rgb(35,162,160);fill-rule:nonzero;"/>
    </g>
</svg>
