<?xml version="1.0" encoding="UTF-8" standalone="no"?>
<!DOCTYPE svg PUBLIC "-//W3C//DTD SVG 1.1//EN" "http://www.w3.org/Graphics/SVG/1.1/DTD/svg11.dtd">
<svg width="100%" height="100%" viewBox="0 0 101 100" version="1.1" xmlns="http://www.w3.org/2000/svg" xmlns:xlink="http://www.w3.org/1999/xlink" xml:space="preserve" style="fill-rule:evenodd;clip-rule:evenodd;stroke-linejoin:round;stroke-miterlimit:1.41421;">
    <g transform="matrix(4.16667,0,0,4.16667,0.00145071,0.00166667)">
        <path d="M21.612,3L21.279,4L16.72,4L16.387,3L21.612,3ZM20,8L20,9C20,9.552 19.552,10 19,10C18.447,10 18,9.552 18,9L18,8C18,7.448 18.447,7 19,7C19.552,7 20,7.448 20,8ZM20.382,15L3.618,15L2.618,13L21.382,13L20.382,15ZM7.612,3L7.279,4L2.72,4L2.387,3L7.612,3ZM6,8L6,9C6,9.552 5.552,10 5,10C4.447,10 4,9.552 4,9L4,8C4,7.448 4.447,7 5,7C5.552,7 6,7.448 6,8ZM24,1C24,0.448 23.552,0 23,0C22.447,0 22,0.448 22,1L20,1C20,0.448 19.552,0 19,0C18.447,0 18,0.448 18,1L16,1C16,0.448 15.552,0 15,0C14.447,0 14,0.448 14,1L14,2C14,2.009 14.005,2.017 14.005,2.027C14.008,2.124 14.02,2.222 14.051,2.316L15,5.161L15,11L9,11L9,5.161L9.948,2.316C9.98,2.222 9.992,2.124 9.994,2.027C9.995,2.017 10,2.009 10,2L10,1C10,0.448 9.552,0 9,0C8.447,0 8,0.448 8,1L6,1C6,0.448 5.552,0 5,0C4.447,0 4,0.448 4,1L2,1C2,0.448 1.552,0 1,0C0.447,0 0,0.448 0,1L0,2C0,2.009 0.005,2.017 0.005,2.027C0.008,2.124 0.02,2.222 0.051,2.316L1,5.161L1,11C0.653,11 0.332,11.18 0.149,11.474C-0.034,11.769 -0.05,12.137 0.105,12.447L2,16.236L2,23C2,23.552 2.447,24 3,24L9,24L9,21C9,19.346 10.345,18 12,18C13.654,18 15,19.346 15,21L15,24L21,24C21.552,24 22,23.552 22,23L22,16.236L23.894,12.447C24.05,12.137 24.033,11.769 23.85,11.474C23.668,11.18 23.346,11 23,11L23,5.161L23.948,2.316C23.98,2.222 23.992,2.124 23.994,2.027C23.995,2.017 24,2.009 24,2L24,1Z" style="fill:rgb(35,162,160);"/>
        <path d="M12,20C11.448,20 11,20.449 11,21L11,24L13,24L13,21C13,20.449 12.552,20 12,20" style="fill:rgb(35,162,160);"/>
    </g>
</svg>
