<?xml version="1.0" encoding="UTF-8" standalone="no"?>
<!DOCTYPE svg PUBLIC "-//W3C//DTD SVG 1.1//EN" "http://www.w3.org/Graphics/SVG/1.1/DTD/svg11.dtd">
<svg width="100%" height="100%" viewBox="0 0 334 375" version="1.1" xmlns="http://www.w3.org/2000/svg" xmlns:xlink="http://www.w3.org/1999/xlink" xml:space="preserve" style="fill-rule:evenodd;clip-rule:evenodd;stroke-linejoin:round;stroke-miterlimit:1.41421;">
    <g transform="matrix(4.16667,0,0,4.16667,-41.6667,-20.8333)">
        <path d="M10,95L90,95L90,5L10,5L10,95ZM28.965,87.5L27.5,87.5L27.5,83.647C28.704,84.346 30.062,84.807 31.515,84.95L28.965,87.5ZM36.035,87.5L38.535,85L38.964,85L41.464,87.5L36.035,87.5ZM52.5,86.25L47.286,86.25L41.036,80L32.5,80C29.743,80 27.5,77.757 27.5,75L27.5,73.284C27.5,68.61 29.32,64.215 32.625,60.909L33.546,59.988C33.645,59.889 33.749,59.795 33.849,59.697C34.612,60.316 35.409,60.881 36.233,61.397C39.979,63.74 44.311,65 48.839,65L51.465,65L49.09,67.375C48.269,68.196 47.543,69.083 46.867,70L35,70L35,75L46.595,75L52.5,79.921L52.5,86.25ZM45.854,51.118L50,49.045L50,44.886C52.661,44.608 55.199,43.786 57.5,42.491L57.5,58.964L56.465,60L48.839,60C44.763,60 40.897,58.695 37.679,56.316C40.214,54.313 42.948,52.571 45.854,51.118ZM42.5,32.929L42.5,27.5C42.5,23.364 45.864,20 50,20C52.988,20 55.666,21.324 57.5,23.408L57.5,36.417C54.847,38.734 51.485,40 47.929,40L47.5,40C46.556,40 45.668,39.632 45,38.965C43.388,37.353 42.5,35.209 42.5,32.929ZM65,85L57.5,85L57.5,80L60,80C64.136,80 67.5,76.636 67.5,72.5L67.5,70L62.5,70L62.5,72.5C62.5,73.878 61.378,75 60,75L54.405,75L51.298,72.411C51.712,71.891 52.148,71.386 52.625,70.91L61.338,62.197C62.755,60.78 64.639,60 66.642,60L68.598,60C71.118,63.434 72.5,67.553 72.5,71.894L72.5,77.5C72.5,81.636 69.136,85 65,85ZM17.5,12.5L82.5,12.5L82.5,87.5L72.468,87.5C75.515,85.218 77.5,81.591 77.5,77.5L77.5,71.894C77.5,65.169 74.881,58.846 70.125,54.091C66.82,50.785 65,46.39 65,41.716L65,30C65,21.729 58.271,15 50,15C43.529,15 38.193,19.942 37.563,26.25L37.5,26.25L37.5,50.253C37.49,50.26 37.48,50.267 37.47,50.274C34.806,52.097 32.308,54.157 30.012,56.453L29.091,57.374C24.841,61.624 22.501,67.274 22.501,73.284L22.501,87.5L17.501,87.5L17.501,12.5L17.5,12.5Z" style="fill:rgb(35,162,160);fill-rule:nonzero;"/>
    </g>
</svg>
