<?xml version="1.0" encoding="UTF-8" standalone="no"?>
<!DOCTYPE svg PUBLIC "-//W3C//DTD SVG 1.1//EN" "http://www.w3.org/Graphics/SVG/1.1/DTD/svg11.dtd">
<svg width="100%" height="100%" viewBox="0 0 302 388" version="1.1" xmlns="http://www.w3.org/2000/svg" xmlns:xlink="http://www.w3.org/1999/xlink" xml:space="preserve" style="fill-rule:evenodd;clip-rule:evenodd;stroke-linejoin:round;stroke-miterlimit:1.41421;">
    <g transform="matrix(4.16667,0,0,4.16667,-57.9167,-14.5833)">
        <path d="M50,3.5C30.1,3.5 13.9,19.6 13.9,39.6L13.9,79.8C13.9,83.8 17.1,87 21.1,87L21.2,87C25.2,87 28.4,83.8 28.4,79.8L28.4,71.6C28.4,67.6 31.6,64.4 35.6,64.4L35.7,64.4C39.7,64.4 42.9,67.6 42.9,71.6L42.9,89.4C42.9,93.4 46.1,96.6 50.1,96.6L50.2,96.6C54.2,96.6 57.4,93.4 57.4,89.4L57.4,71.5C57.4,67.5 60.6,64.3 64.6,64.3C68.6,64.3 71.8,67.5 71.8,71.5L71.8,79.1C71.8,83.1 75,86.3 79,86.3L79.1,86.3C83.1,86.3 86.3,83.1 86.3,79.1L86.3,62.1L86.3,57.2L86.3,39.6C86.1,19.7 69.9,3.5 50,3.5ZM50,52.9C41,52.9 33.7,45.6 33.7,36.6C33.7,27.6 41,20.2 50,20.2C59,20.2 66.3,27.5 66.3,36.5C66.3,45.5 59,52.9 50,52.9Z" style="fill:rgb(35,162,160);fill-rule:nonzero;"/>
        <path d="M56.2,32.7C54.9,30.6 52.6,29.2 50,29.2C46,29.2 42.7,32.5 42.7,36.5C42.7,40.5 46,43.8 50,43.8C52.6,43.8 54.9,42.4 56.2,40.3C54.5,39.8 53.3,38.3 53.3,36.5C53.3,34.7 54.6,33.2 56.2,32.7Z" style="fill:rgb(35,162,160);fill-rule:nonzero;"/>
    </g>
</svg>
