<?xml version="1.0" encoding="UTF-8" standalone="no"?>
<!DOCTYPE svg PUBLIC "-//W3C//DTD SVG 1.1//EN" "http://www.w3.org/Graphics/SVG/1.1/DTD/svg11.dtd">
<svg width="100%" height="100%" viewBox="0 0 296 30" version="1.1" xmlns="http://www.w3.org/2000/svg" xmlns:xlink="http://www.w3.org/1999/xlink" xml:space="preserve" style="fill-rule:evenodd;clip-rule:evenodd;stroke-linejoin:round;stroke-miterlimit:1.41421;">
    <g transform="matrix(4.16667,0,0,4.16667,-9.76,-210.907)">
        <g transform="matrix(0.171393,0,0,0.171393,-0.999759,47.2754)">
            <circle cx="30.667" cy="30.667" r="1.5" style="fill:rgb(33,33,33);"/>
        </g>
        <g transform="matrix(0.171393,0,0,0.171393,-0.999759,47.2754)">
            <circle cx="21" cy="30.667" r="1.5" style="fill:rgb(33,33,33);"/>
        </g>
        <g transform="matrix(0.171393,0,0,0.171393,-0.999759,47.2754)">
            <circle cx="50" cy="30.667" r="1.5" style="fill:rgb(33,33,33);"/>
        </g>
        <g transform="matrix(0.171393,0,0,0.171393,-0.999759,47.2754)">
            <circle cx="40.333" cy="30.667" r="1.5" style="fill:rgb(33,33,33);"/>
        </g>
        <g transform="matrix(0.171393,0,0,0.171393,-0.999759,47.2754)">
            <circle cx="59.667" cy="30.667" r="1.5" style="fill:rgb(33,33,33);"/>
        </g>
        <g transform="matrix(0.171393,0,0,0.171393,-0.999759,47.2754)">
            <circle cx="69.333" cy="30.667" r="1.5" style="fill:rgb(33,33,33);"/>
        </g>
        <g transform="matrix(0.171393,0,0,0.171393,-0.999759,47.2754)">
            <circle cx="79" cy="30.667" r="1.5" style="fill:rgb(33,33,33);"/>
        </g>
        <g transform="matrix(0.171393,0,0,0.171393,-0.999759,47.2754)">
            <circle cx="30.667" cy="40.333" r="1.5" style="fill:rgb(33,33,33);"/>
        </g>
        <g transform="matrix(0.171393,0,0,0.171393,-0.999759,47.2754)">
            <circle cx="21" cy="40.333" r="1.5" style="fill:rgb(33,33,33);"/>
        </g>
        <g transform="matrix(0.171393,0,0,0.171393,-0.999759,47.2754)">
            <circle cx="50" cy="40.333" r="1.5" style="fill:rgb(33,33,33);"/>
        </g>
        <g transform="matrix(0.171393,0,0,0.171393,-0.999759,47.2754)">
            <circle cx="40.333" cy="40.333" r="1.5" style="fill:rgb(33,33,33);"/>
        </g>
        <g transform="matrix(0.171393,0,0,0.171393,-0.999759,47.2754)">
            <circle cx="59.667" cy="40.333" r="1.5" style="fill:rgb(33,33,33);"/>
        </g>
        <g transform="matrix(0.171393,0,0,0.171393,-0.999759,47.2754)">
            <circle cx="69.333" cy="40.333" r="1.5" style="fill:rgb(33,33,33);"/>
        </g>
        <g transform="matrix(0.171393,0,0,0.171393,-0.999759,47.2754)">
            <circle cx="79" cy="40.333" r="1.5" style="fill:rgb(33,33,33);"/>
        </g>
        <g transform="matrix(0.171393,0,0,0.171393,-0.999759,47.2754)">
            <circle cx="30.667" cy="50" r="1.5" style="fill:rgb(33,33,33);"/>
        </g>
        <g transform="matrix(0.171393,0,0,0.171393,-0.999759,47.2754)">
            <circle cx="21" cy="50" r="1.5" style="fill:rgb(33,33,33);"/>
        </g>
        <g transform="matrix(0.171393,0,0,0.171393,-0.999759,47.2754)">
            <circle cx="50" cy="50" r="1.5" style="fill:rgb(33,33,33);"/>
        </g>
        <g transform="matrix(0.171393,0,0,0.171393,-0.999759,47.2754)">
            <circle cx="40.333" cy="50" r="1.5" style="fill:rgb(33,33,33);"/>
        </g>
        <g transform="matrix(0.171393,0,0,0.171393,-0.999759,47.2754)">
            <circle cx="59.667" cy="50" r="1.5" style="fill:rgb(33,33,33);"/>
        </g>
        <g transform="matrix(0.171393,0,0,0.171393,-0.999759,47.2754)">
            <circle cx="69.333" cy="50" r="1.5" style="fill:rgb(33,33,33);"/>
        </g>
        <g transform="matrix(0.171393,0,0,0.171393,-0.999759,47.2754)">
            <circle cx="79" cy="50" r="1.5" style="fill:rgb(33,33,33);"/>
        </g>
        <g transform="matrix(0.171393,0,0,0.171393,-0.999759,47.2754)">
            <circle cx="30.667" cy="59.667" r="1.5" style="fill:rgb(33,33,33);"/>
        </g>
        <g transform="matrix(0.171393,0,0,0.171393,-0.999759,47.2754)">
            <circle cx="21" cy="59.667" r="1.5" style="fill:rgb(33,33,33);"/>
        </g>
        <g transform="matrix(0.171393,0,0,0.171393,-0.999759,47.2754)">
            <circle cx="50" cy="59.667" r="1.5" style="fill:rgb(33,33,33);"/>
        </g>
        <g transform="matrix(0.171393,0,0,0.171393,-0.999759,47.2754)">
            <circle cx="40.333" cy="59.667" r="1.5" style="fill:rgb(33,33,33);"/>
        </g>
        <g transform="matrix(0.171393,0,0,0.171393,-0.999759,47.2754)">
            <circle cx="59.667" cy="59.667" r="1.5" style="fill:rgb(33,33,33);"/>
        </g>
        <g transform="matrix(0.171393,0,0,0.171393,-0.999759,47.2754)">
            <circle cx="69.333" cy="59.667" r="1.5" style="fill:rgb(33,33,33);"/>
        </g>
        <g transform="matrix(0.171393,0,0,0.171393,-0.999759,47.2754)">
            <circle cx="79" cy="59.667" r="1.5" style="fill:rgb(33,33,33);"/>
        </g>
        <g transform="matrix(0.171393,0,0,0.171393,-0.999759,47.2754)">
            <circle cx="30.667" cy="21" r="1.5" style="fill:rgb(33,33,33);"/>
        </g>
        <g transform="matrix(0.171393,0,0,0.171393,-0.999759,47.2754)">
            <circle cx="21" cy="21" r="1.5" style="fill:rgb(33,33,33);"/>
        </g>
        <g transform="matrix(0.171393,0,0,0.171393,-0.999759,47.2754)">
            <circle cx="50" cy="21" r="1.5" style="fill:rgb(33,33,33);"/>
        </g>
        <g transform="matrix(0.171393,0,0,0.171393,-0.999759,47.2754)">
            <circle cx="40.333" cy="21" r="1.5" style="fill:rgb(33,33,33);"/>
        </g>
        <g transform="matrix(0.171393,0,0,0.171393,-0.999759,47.2754)">
            <circle cx="59.667" cy="21" r="1.5" style="fill:rgb(33,33,33);"/>
        </g>
        <g transform="matrix(0.171393,0,0,0.171393,-0.999759,47.2754)">
            <circle cx="69.333" cy="21" r="1.5" style="fill:rgb(33,33,33);"/>
        </g>
        <g transform="matrix(0.171393,0,0,0.171393,-0.999759,47.2754)">
            <circle cx="79" cy="21" r="1.5" style="fill:rgb(33,33,33);"/>
        </g>
        <g transform="matrix(0.171393,0,0,0.171393,10.4372,47.2754)">
            <circle cx="30.667" cy="30.667" r="1.5" style="fill:rgb(33,33,33);"/>
        </g>
        <g transform="matrix(0.171393,0,0,0.171393,10.4372,47.2754)">
            <circle cx="21" cy="30.667" r="1.5" style="fill:rgb(33,33,33);"/>
        </g>
        <g transform="matrix(0.171393,0,0,0.171393,10.4372,47.2754)">
            <circle cx="50" cy="30.667" r="1.5" style="fill:rgb(33,33,33);"/>
        </g>
        <g transform="matrix(0.171393,0,0,0.171393,10.4372,47.2754)">
            <circle cx="40.333" cy="30.667" r="1.5" style="fill:rgb(33,33,33);"/>
        </g>
        <g transform="matrix(0.171393,0,0,0.171393,10.4372,47.2754)">
            <circle cx="59.667" cy="30.667" r="1.5" style="fill:rgb(33,33,33);"/>
        </g>
        <g transform="matrix(0.171393,0,0,0.171393,10.4372,47.2754)">
            <circle cx="69.333" cy="30.667" r="1.5" style="fill:rgb(33,33,33);"/>
        </g>
        <g transform="matrix(0.171393,0,0,0.171393,10.4372,47.2754)">
            <circle cx="79" cy="30.667" r="1.5" style="fill:rgb(33,33,33);"/>
        </g>
        <g transform="matrix(0.171393,0,0,0.171393,10.4372,47.2754)">
            <circle cx="30.667" cy="40.333" r="1.5" style="fill:rgb(33,33,33);"/>
        </g>
        <g transform="matrix(0.171393,0,0,0.171393,10.4372,47.2754)">
            <circle cx="21" cy="40.333" r="1.5" style="fill:rgb(33,33,33);"/>
        </g>
        <g transform="matrix(0.171393,0,0,0.171393,10.4372,47.2754)">
            <circle cx="50" cy="40.333" r="1.5" style="fill:rgb(33,33,33);"/>
        </g>
        <g transform="matrix(0.171393,0,0,0.171393,10.4372,47.2754)">
            <circle cx="40.333" cy="40.333" r="1.5" style="fill:rgb(33,33,33);"/>
        </g>
        <g transform="matrix(0.171393,0,0,0.171393,10.4372,47.2754)">
            <circle cx="59.667" cy="40.333" r="1.5" style="fill:rgb(33,33,33);"/>
        </g>
        <g transform="matrix(0.171393,0,0,0.171393,10.4372,47.2754)">
            <circle cx="69.333" cy="40.333" r="1.5" style="fill:rgb(33,33,33);"/>
        </g>
        <g transform="matrix(0.171393,0,0,0.171393,10.4372,47.2754)">
            <circle cx="79" cy="40.333" r="1.5" style="fill:rgb(33,33,33);"/>
        </g>
        <g transform="matrix(0.171393,0,0,0.171393,10.4372,47.2754)">
            <circle cx="30.667" cy="50" r="1.5" style="fill:rgb(33,33,33);"/>
        </g>
        <g transform="matrix(0.171393,0,0,0.171393,10.4372,47.2754)">
            <circle cx="21" cy="50" r="1.5" style="fill:rgb(33,33,33);"/>
        </g>
        <g transform="matrix(0.171393,0,0,0.171393,10.4372,47.2754)">
            <circle cx="50" cy="50" r="1.5" style="fill:rgb(33,33,33);"/>
        </g>
        <g transform="matrix(0.171393,0,0,0.171393,10.4372,47.2754)">
            <circle cx="40.333" cy="50" r="1.5" style="fill:rgb(33,33,33);"/>
        </g>
        <g transform="matrix(0.171393,0,0,0.171393,10.4372,47.2754)">
            <circle cx="59.667" cy="50" r="1.5" style="fill:rgb(33,33,33);"/>
        </g>
        <g transform="matrix(0.171393,0,0,0.171393,10.4372,47.2754)">
            <circle cx="69.333" cy="50" r="1.5" style="fill:rgb(33,33,33);"/>
        </g>
        <g transform="matrix(0.171393,0,0,0.171393,10.4372,47.2754)">
            <circle cx="79" cy="50" r="1.5" style="fill:rgb(33,33,33);"/>
        </g>
        <g transform="matrix(0.171393,0,0,0.171393,10.4372,47.2754)">
            <circle cx="30.667" cy="59.667" r="1.5" style="fill:rgb(33,33,33);"/>
        </g>
        <g transform="matrix(0.171393,0,0,0.171393,10.4372,47.2754)">
            <circle cx="21" cy="59.667" r="1.5" style="fill:rgb(33,33,33);"/>
        </g>
        <g transform="matrix(0.171393,0,0,0.171393,10.4372,47.2754)">
            <circle cx="50" cy="59.667" r="1.5" style="fill:rgb(33,33,33);"/>
        </g>
        <g transform="matrix(0.171393,0,0,0.171393,10.4372,47.2754)">
            <circle cx="40.333" cy="59.667" r="1.5" style="fill:rgb(33,33,33);"/>
        </g>
        <g transform="matrix(0.171393,0,0,0.171393,10.4372,47.2754)">
            <circle cx="59.667" cy="59.667" r="1.5" style="fill:rgb(33,33,33);"/>
        </g>
        <g transform="matrix(0.171393,0,0,0.171393,10.4372,47.2754)">
            <circle cx="69.333" cy="59.667" r="1.5" style="fill:rgb(33,33,33);"/>
        </g>
        <g transform="matrix(0.171393,0,0,0.171393,10.4372,47.2754)">
            <circle cx="79" cy="59.667" r="1.5" style="fill:rgb(33,33,33);"/>
        </g>
        <g transform="matrix(0.171393,0,0,0.171393,10.4372,47.2754)">
            <circle cx="30.667" cy="21" r="1.5" style="fill:rgb(33,33,33);"/>
        </g>
        <g transform="matrix(0.171393,0,0,0.171393,10.4372,47.2754)">
            <circle cx="21" cy="21" r="1.5" style="fill:rgb(33,33,33);"/>
        </g>
        <g transform="matrix(0.171393,0,0,0.171393,10.4372,47.2754)">
            <circle cx="50" cy="21" r="1.5" style="fill:rgb(33,33,33);"/>
        </g>
        <g transform="matrix(0.171393,0,0,0.171393,10.4372,47.2754)">
            <circle cx="40.333" cy="21" r="1.5" style="fill:rgb(33,33,33);"/>
        </g>
        <g transform="matrix(0.171393,0,0,0.171393,10.4372,47.2754)">
            <circle cx="59.667" cy="21" r="1.5" style="fill:rgb(33,33,33);"/>
        </g>
        <g transform="matrix(0.171393,0,0,0.171393,10.4372,47.2754)">
            <circle cx="69.333" cy="21" r="1.5" style="fill:rgb(33,33,33);"/>
        </g>
        <g transform="matrix(0.171393,0,0,0.171393,10.4372,47.2754)">
            <circle cx="79" cy="21" r="1.5" style="fill:rgb(33,33,33);"/>
        </g>
        <g transform="matrix(0.171393,0,0,0.171393,21.9355,47.2754)">
            <circle cx="30.667" cy="30.667" r="1.5" style="fill:rgb(33,33,33);"/>
        </g>
        <g transform="matrix(0.171393,0,0,0.171393,21.9355,47.2754)">
            <circle cx="21" cy="30.667" r="1.5" style="fill:rgb(33,33,33);"/>
        </g>
        <g transform="matrix(0.171393,0,0,0.171393,21.9355,47.2754)">
            <circle cx="50" cy="30.667" r="1.5" style="fill:rgb(33,33,33);"/>
        </g>
        <g transform="matrix(0.171393,0,0,0.171393,21.9355,47.2754)">
            <circle cx="40.333" cy="30.667" r="1.5" style="fill:rgb(33,33,33);"/>
        </g>
        <g transform="matrix(0.171393,0,0,0.171393,21.9355,47.2754)">
            <circle cx="59.667" cy="30.667" r="1.5" style="fill:rgb(33,33,33);"/>
        </g>
        <g transform="matrix(0.171393,0,0,0.171393,21.9355,47.2754)">
            <circle cx="69.333" cy="30.667" r="1.5" style="fill:rgb(33,33,33);"/>
        </g>
        <g transform="matrix(0.171393,0,0,0.171393,21.9355,47.2754)">
            <circle cx="79" cy="30.667" r="1.5" style="fill:rgb(33,33,33);"/>
        </g>
        <g transform="matrix(0.171393,0,0,0.171393,21.9355,47.2754)">
            <circle cx="30.667" cy="40.333" r="1.5" style="fill:rgb(33,33,33);"/>
        </g>
        <g transform="matrix(0.171393,0,0,0.171393,21.9355,47.2754)">
            <circle cx="21" cy="40.333" r="1.5" style="fill:rgb(33,33,33);"/>
        </g>
        <g transform="matrix(0.171393,0,0,0.171393,21.9355,47.2754)">
            <circle cx="50" cy="40.333" r="1.5" style="fill:rgb(33,33,33);"/>
        </g>
        <g transform="matrix(0.171393,0,0,0.171393,21.9355,47.2754)">
            <circle cx="40.333" cy="40.333" r="1.5" style="fill:rgb(33,33,33);"/>
        </g>
        <g transform="matrix(0.171393,0,0,0.171393,21.9355,47.2754)">
            <circle cx="59.667" cy="40.333" r="1.5" style="fill:rgb(33,33,33);"/>
        </g>
        <g transform="matrix(0.171393,0,0,0.171393,21.9355,47.2754)">
            <circle cx="69.333" cy="40.333" r="1.5" style="fill:rgb(33,33,33);"/>
        </g>
        <g transform="matrix(0.171393,0,0,0.171393,21.9355,47.2754)">
            <circle cx="79" cy="40.333" r="1.5" style="fill:rgb(33,33,33);"/>
        </g>
        <g transform="matrix(0.171393,0,0,0.171393,21.9355,47.2754)">
            <circle cx="30.667" cy="50" r="1.5" style="fill:rgb(33,33,33);"/>
        </g>
        <g transform="matrix(0.171393,0,0,0.171393,21.9355,47.2754)">
            <circle cx="21" cy="50" r="1.5" style="fill:rgb(33,33,33);"/>
        </g>
        <g transform="matrix(0.171393,0,0,0.171393,21.9355,47.2754)">
            <circle cx="50" cy="50" r="1.5" style="fill:rgb(33,33,33);"/>
        </g>
        <g transform="matrix(0.171393,0,0,0.171393,21.9355,47.2754)">
            <circle cx="40.333" cy="50" r="1.5" style="fill:rgb(33,33,33);"/>
        </g>
        <g transform="matrix(0.171393,0,0,0.171393,21.9355,47.2754)">
            <circle cx="59.667" cy="50" r="1.5" style="fill:rgb(33,33,33);"/>
        </g>
        <g transform="matrix(0.171393,0,0,0.171393,21.9355,47.2754)">
            <circle cx="69.333" cy="50" r="1.5" style="fill:rgb(33,33,33);"/>
        </g>
        <g transform="matrix(0.171393,0,0,0.171393,21.9355,47.2754)">
            <circle cx="79" cy="50" r="1.5" style="fill:rgb(33,33,33);"/>
        </g>
        <g transform="matrix(0.171393,0,0,0.171393,21.9355,47.2754)">
            <circle cx="30.667" cy="59.667" r="1.5" style="fill:rgb(33,33,33);"/>
        </g>
        <g transform="matrix(0.171393,0,0,0.171393,21.9355,47.2754)">
            <circle cx="21" cy="59.667" r="1.5" style="fill:rgb(33,33,33);"/>
        </g>
        <g transform="matrix(0.171393,0,0,0.171393,21.9355,47.2754)">
            <circle cx="50" cy="59.667" r="1.5" style="fill:rgb(33,33,33);"/>
        </g>
        <g transform="matrix(0.171393,0,0,0.171393,21.9355,47.2754)">
            <circle cx="40.333" cy="59.667" r="1.5" style="fill:rgb(33,33,33);"/>
        </g>
        <g transform="matrix(0.171393,0,0,0.171393,21.9355,47.2754)">
            <circle cx="59.667" cy="59.667" r="1.5" style="fill:rgb(33,33,33);"/>
        </g>
        <g transform="matrix(0.171393,0,0,0.171393,21.9355,47.2754)">
            <circle cx="69.333" cy="59.667" r="1.5" style="fill:rgb(33,33,33);"/>
        </g>
        <g transform="matrix(0.171393,0,0,0.171393,21.9355,47.2754)">
            <circle cx="79" cy="59.667" r="1.5" style="fill:rgb(33,33,33);"/>
        </g>
        <g transform="matrix(0.171393,0,0,0.171393,21.9355,47.2754)">
            <circle cx="30.667" cy="21" r="1.5" style="fill:rgb(33,33,33);"/>
        </g>
        <g transform="matrix(0.171393,0,0,0.171393,21.9355,47.2754)">
            <circle cx="21" cy="21" r="1.5" style="fill:rgb(33,33,33);"/>
        </g>
        <g transform="matrix(0.171393,0,0,0.171393,21.9355,47.2754)">
            <circle cx="50" cy="21" r="1.5" style="fill:rgb(33,33,33);"/>
        </g>
        <g transform="matrix(0.171393,0,0,0.171393,21.9355,47.2754)">
            <circle cx="40.333" cy="21" r="1.5" style="fill:rgb(33,33,33);"/>
        </g>
        <g transform="matrix(0.171393,0,0,0.171393,21.9355,47.2754)">
            <circle cx="59.667" cy="21" r="1.5" style="fill:rgb(33,33,33);"/>
        </g>
        <g transform="matrix(0.171393,0,0,0.171393,21.9355,47.2754)">
            <circle cx="69.333" cy="21" r="1.5" style="fill:rgb(33,33,33);"/>
        </g>
        <g transform="matrix(0.171393,0,0,0.171393,21.9355,47.2754)">
            <circle cx="79" cy="21" r="1.5" style="fill:rgb(33,33,33);"/>
        </g>
        <g transform="matrix(0.171393,0,0,0.171393,33.3724,47.2754)">
            <circle cx="30.667" cy="30.667" r="1.5" style="fill:rgb(33,33,33);"/>
        </g>
        <g transform="matrix(0.171393,0,0,0.171393,33.3724,47.2754)">
            <circle cx="21" cy="30.667" r="1.5" style="fill:rgb(33,33,33);"/>
        </g>
        <g transform="matrix(0.171393,0,0,0.171393,33.3724,47.2754)">
            <circle cx="50" cy="30.667" r="1.5" style="fill:rgb(33,33,33);"/>
        </g>
        <g transform="matrix(0.171393,0,0,0.171393,33.3724,47.2754)">
            <circle cx="40.333" cy="30.667" r="1.5" style="fill:rgb(33,33,33);"/>
        </g>
        <g transform="matrix(0.171393,0,0,0.171393,33.3724,47.2754)">
            <circle cx="59.667" cy="30.667" r="1.5" style="fill:rgb(33,33,33);"/>
        </g>
        <g transform="matrix(0.171393,0,0,0.171393,33.3724,47.2754)">
            <circle cx="69.333" cy="30.667" r="1.5" style="fill:rgb(33,33,33);"/>
        </g>
        <g transform="matrix(0.171393,0,0,0.171393,33.3724,47.2754)">
            <circle cx="79" cy="30.667" r="1.5" style="fill:rgb(33,33,33);"/>
        </g>
        <g transform="matrix(0.171393,0,0,0.171393,33.3724,47.2754)">
            <circle cx="30.667" cy="40.333" r="1.5" style="fill:rgb(33,33,33);"/>
        </g>
        <g transform="matrix(0.171393,0,0,0.171393,33.3724,47.2754)">
            <circle cx="21" cy="40.333" r="1.5" style="fill:rgb(33,33,33);"/>
        </g>
        <g transform="matrix(0.171393,0,0,0.171393,33.3724,47.2754)">
            <circle cx="50" cy="40.333" r="1.5" style="fill:rgb(33,33,33);"/>
        </g>
        <g transform="matrix(0.171393,0,0,0.171393,33.3724,47.2754)">
            <circle cx="40.333" cy="40.333" r="1.5" style="fill:rgb(33,33,33);"/>
        </g>
        <g transform="matrix(0.171393,0,0,0.171393,33.3724,47.2754)">
            <circle cx="59.667" cy="40.333" r="1.5" style="fill:rgb(33,33,33);"/>
        </g>
        <g transform="matrix(0.171393,0,0,0.171393,33.3724,47.2754)">
            <circle cx="69.333" cy="40.333" r="1.5" style="fill:rgb(33,33,33);"/>
        </g>
        <g transform="matrix(0.171393,0,0,0.171393,33.3724,47.2754)">
            <circle cx="79" cy="40.333" r="1.5" style="fill:rgb(33,33,33);"/>
        </g>
        <g transform="matrix(0.171393,0,0,0.171393,33.3724,47.2754)">
            <circle cx="30.667" cy="50" r="1.5" style="fill:rgb(33,33,33);"/>
        </g>
        <g transform="matrix(0.171393,0,0,0.171393,33.3724,47.2754)">
            <circle cx="21" cy="50" r="1.5" style="fill:rgb(33,33,33);"/>
        </g>
        <g transform="matrix(0.171393,0,0,0.171393,33.3724,47.2754)">
            <circle cx="50" cy="50" r="1.5" style="fill:rgb(33,33,33);"/>
        </g>
        <g transform="matrix(0.171393,0,0,0.171393,33.3724,47.2754)">
            <circle cx="40.333" cy="50" r="1.5" style="fill:rgb(33,33,33);"/>
        </g>
        <g transform="matrix(0.171393,0,0,0.171393,33.3724,47.2754)">
            <circle cx="59.667" cy="50" r="1.5" style="fill:rgb(33,33,33);"/>
        </g>
        <g transform="matrix(0.171393,0,0,0.171393,33.3724,47.2754)">
            <circle cx="69.333" cy="50" r="1.5" style="fill:rgb(33,33,33);"/>
        </g>
        <g transform="matrix(0.171393,0,0,0.171393,33.3724,47.2754)">
            <circle cx="79" cy="50" r="1.5" style="fill:rgb(33,33,33);"/>
        </g>
        <g transform="matrix(0.171393,0,0,0.171393,33.3724,47.2754)">
            <circle cx="30.667" cy="59.667" r="1.5" style="fill:rgb(33,33,33);"/>
        </g>
        <g transform="matrix(0.171393,0,0,0.171393,33.3724,47.2754)">
            <circle cx="21" cy="59.667" r="1.5" style="fill:rgb(33,33,33);"/>
        </g>
        <g transform="matrix(0.171393,0,0,0.171393,33.3724,47.2754)">
            <circle cx="50" cy="59.667" r="1.5" style="fill:rgb(33,33,33);"/>
        </g>
        <g transform="matrix(0.171393,0,0,0.171393,33.3724,47.2754)">
            <circle cx="40.333" cy="59.667" r="1.5" style="fill:rgb(33,33,33);"/>
        </g>
        <g transform="matrix(0.171393,0,0,0.171393,33.3724,47.2754)">
            <circle cx="59.667" cy="59.667" r="1.5" style="fill:rgb(33,33,33);"/>
        </g>
        <g transform="matrix(0.171393,0,0,0.171393,33.3724,47.2754)">
            <circle cx="69.333" cy="59.667" r="1.5" style="fill:rgb(33,33,33);"/>
        </g>
        <g transform="matrix(0.171393,0,0,0.171393,33.3724,47.2754)">
            <circle cx="79" cy="59.667" r="1.5" style="fill:rgb(33,33,33);"/>
        </g>
        <g transform="matrix(0.171393,0,0,0.171393,33.3724,47.2754)">
            <circle cx="30.667" cy="21" r="1.5" style="fill:rgb(33,33,33);"/>
        </g>
        <g transform="matrix(0.171393,0,0,0.171393,33.3724,47.2754)">
            <circle cx="21" cy="21" r="1.5" style="fill:rgb(33,33,33);"/>
        </g>
        <g transform="matrix(0.171393,0,0,0.171393,33.3724,47.2754)">
            <circle cx="50" cy="21" r="1.5" style="fill:rgb(33,33,33);"/>
        </g>
        <g transform="matrix(0.171393,0,0,0.171393,33.3724,47.2754)">
            <circle cx="40.333" cy="21" r="1.5" style="fill:rgb(33,33,33);"/>
        </g>
        <g transform="matrix(0.171393,0,0,0.171393,33.3724,47.2754)">
            <circle cx="59.667" cy="21" r="1.5" style="fill:rgb(33,33,33);"/>
        </g>
        <g transform="matrix(0.171393,0,0,0.171393,33.3724,47.2754)">
            <circle cx="69.333" cy="21" r="1.5" style="fill:rgb(33,33,33);"/>
        </g>
        <g transform="matrix(0.171393,0,0,0.171393,33.3724,47.2754)">
            <circle cx="79" cy="21" r="1.5" style="fill:rgb(33,33,33);"/>
        </g>
        <g transform="matrix(0.171393,0,0,0.171393,44.8094,47.2754)">
            <circle cx="30.667" cy="30.667" r="1.5" style="fill:rgb(33,33,33);"/>
        </g>
        <g transform="matrix(0.171393,0,0,0.171393,44.8094,47.2754)">
            <circle cx="21" cy="30.667" r="1.5" style="fill:rgb(33,33,33);"/>
        </g>
        <g transform="matrix(0.171393,0,0,0.171393,44.8094,47.2754)">
            <circle cx="50" cy="30.667" r="1.5" style="fill:rgb(33,33,33);"/>
        </g>
        <g transform="matrix(0.171393,0,0,0.171393,44.8094,47.2754)">
            <circle cx="40.333" cy="30.667" r="1.5" style="fill:rgb(33,33,33);"/>
        </g>
        <g transform="matrix(0.171393,0,0,0.171393,44.8094,47.2754)">
            <circle cx="59.667" cy="30.667" r="1.5" style="fill:rgb(33,33,33);"/>
        </g>
        <g transform="matrix(0.171393,0,0,0.171393,44.8094,47.2754)">
            <circle cx="69.333" cy="30.667" r="1.5" style="fill:rgb(33,33,33);"/>
        </g>
        <g transform="matrix(0.171393,0,0,0.171393,44.8094,47.2754)">
            <circle cx="79" cy="30.667" r="1.5" style="fill:rgb(33,33,33);"/>
        </g>
        <g transform="matrix(0.171393,0,0,0.171393,44.8094,47.2754)">
            <circle cx="30.667" cy="40.333" r="1.5" style="fill:rgb(33,33,33);"/>
        </g>
        <g transform="matrix(0.171393,0,0,0.171393,44.8094,47.2754)">
            <circle cx="21" cy="40.333" r="1.5" style="fill:rgb(33,33,33);"/>
        </g>
        <g transform="matrix(0.171393,0,0,0.171393,44.8094,47.2754)">
            <circle cx="50" cy="40.333" r="1.5" style="fill:rgb(33,33,33);"/>
        </g>
        <g transform="matrix(0.171393,0,0,0.171393,44.8094,47.2754)">
            <circle cx="40.333" cy="40.333" r="1.5" style="fill:rgb(33,33,33);"/>
        </g>
        <g transform="matrix(0.171393,0,0,0.171393,44.8094,47.2754)">
            <circle cx="59.667" cy="40.333" r="1.5" style="fill:rgb(33,33,33);"/>
        </g>
        <g transform="matrix(0.171393,0,0,0.171393,44.8094,47.2754)">
            <circle cx="69.333" cy="40.333" r="1.5" style="fill:rgb(33,33,33);"/>
        </g>
        <g transform="matrix(0.171393,0,0,0.171393,44.8094,47.2754)">
            <circle cx="79" cy="40.333" r="1.5" style="fill:rgb(33,33,33);"/>
        </g>
        <g transform="matrix(0.171393,0,0,0.171393,44.8094,47.2754)">
            <circle cx="30.667" cy="50" r="1.5" style="fill:rgb(33,33,33);"/>
        </g>
        <g transform="matrix(0.171393,0,0,0.171393,44.8094,47.2754)">
            <circle cx="21" cy="50" r="1.5" style="fill:rgb(33,33,33);"/>
        </g>
        <g transform="matrix(0.171393,0,0,0.171393,44.8094,47.2754)">
            <circle cx="50" cy="50" r="1.5" style="fill:rgb(33,33,33);"/>
        </g>
        <g transform="matrix(0.171393,0,0,0.171393,44.8094,47.2754)">
            <circle cx="40.333" cy="50" r="1.5" style="fill:rgb(33,33,33);"/>
        </g>
        <g transform="matrix(0.171393,0,0,0.171393,44.8094,47.2754)">
            <circle cx="59.667" cy="50" r="1.5" style="fill:rgb(33,33,33);"/>
        </g>
        <g transform="matrix(0.171393,0,0,0.171393,44.8094,47.2754)">
            <circle cx="69.333" cy="50" r="1.5" style="fill:rgb(33,33,33);"/>
        </g>
        <g transform="matrix(0.171393,0,0,0.171393,44.8094,47.2754)">
            <circle cx="79" cy="50" r="1.5" style="fill:rgb(33,33,33);"/>
        </g>
        <g transform="matrix(0.171393,0,0,0.171393,44.8094,47.2754)">
            <circle cx="30.667" cy="59.667" r="1.5" style="fill:rgb(33,33,33);"/>
        </g>
        <g transform="matrix(0.171393,0,0,0.171393,44.8094,47.2754)">
            <circle cx="21" cy="59.667" r="1.5" style="fill:rgb(33,33,33);"/>
        </g>
        <g transform="matrix(0.171393,0,0,0.171393,44.8094,47.2754)">
            <circle cx="50" cy="59.667" r="1.5" style="fill:rgb(33,33,33);"/>
        </g>
        <g transform="matrix(0.171393,0,0,0.171393,44.8094,47.2754)">
            <circle cx="40.333" cy="59.667" r="1.5" style="fill:rgb(33,33,33);"/>
        </g>
        <g transform="matrix(0.171393,0,0,0.171393,44.8094,47.2754)">
            <circle cx="59.667" cy="59.667" r="1.5" style="fill:rgb(33,33,33);"/>
        </g>
        <g transform="matrix(0.171393,0,0,0.171393,44.8094,47.2754)">
            <circle cx="69.333" cy="59.667" r="1.5" style="fill:rgb(33,33,33);"/>
        </g>
        <g transform="matrix(0.171393,0,0,0.171393,44.8094,47.2754)">
            <circle cx="79" cy="59.667" r="1.5" style="fill:rgb(33,33,33);"/>
        </g>
        <g transform="matrix(0.171393,0,0,0.171393,44.8094,47.2754)">
            <circle cx="30.667" cy="21" r="1.5" style="fill:rgb(33,33,33);"/>
        </g>
        <g transform="matrix(0.171393,0,0,0.171393,44.8094,47.2754)">
            <circle cx="21" cy="21" r="1.5" style="fill:rgb(33,33,33);"/>
        </g>
        <g transform="matrix(0.171393,0,0,0.171393,44.8094,47.2754)">
            <circle cx="50" cy="21" r="1.5" style="fill:rgb(33,33,33);"/>
        </g>
        <g transform="matrix(0.171393,0,0,0.171393,44.8094,47.2754)">
            <circle cx="40.333" cy="21" r="1.5" style="fill:rgb(33,33,33);"/>
        </g>
        <g transform="matrix(0.171393,0,0,0.171393,44.8094,47.2754)">
            <circle cx="59.667" cy="21" r="1.5" style="fill:rgb(33,33,33);"/>
        </g>
        <g transform="matrix(0.171393,0,0,0.171393,44.8094,47.2754)">
            <circle cx="69.333" cy="21" r="1.5" style="fill:rgb(33,33,33);"/>
        </g>
        <g transform="matrix(0.171393,0,0,0.171393,44.8094,47.2754)">
            <circle cx="79" cy="21" r="1.5" style="fill:rgb(33,33,33);"/>
        </g>
        <g transform="matrix(0.171393,0,0,0.171393,56.2463,47.2754)">
            <circle cx="30.667" cy="30.667" r="1.5" style="fill:rgb(33,33,33);"/>
        </g>
        <g transform="matrix(0.171393,0,0,0.171393,56.2463,47.2754)">
            <circle cx="21" cy="30.667" r="1.5" style="fill:rgb(33,33,33);"/>
        </g>
        <g transform="matrix(0.171393,0,0,0.171393,56.2463,47.2754)">
            <circle cx="50" cy="30.667" r="1.5" style="fill:rgb(33,33,33);"/>
        </g>
        <g transform="matrix(0.171393,0,0,0.171393,56.2463,47.2754)">
            <circle cx="40.333" cy="30.667" r="1.5" style="fill:rgb(33,33,33);"/>
        </g>
        <g transform="matrix(0.171393,0,0,0.171393,56.2463,47.2754)">
            <circle cx="59.667" cy="30.667" r="1.5" style="fill:rgb(33,33,33);"/>
        </g>
        <g transform="matrix(0.171393,0,0,0.171393,56.2463,47.2754)">
            <circle cx="69.333" cy="30.667" r="1.5" style="fill:rgb(33,33,33);"/>
        </g>
        <g transform="matrix(0.171393,0,0,0.171393,56.2463,47.2754)">
            <circle cx="79" cy="30.667" r="1.5" style="fill:rgb(33,33,33);"/>
        </g>
        <g transform="matrix(0.171393,0,0,0.171393,56.2463,47.2754)">
            <circle cx="30.667" cy="40.333" r="1.5" style="fill:rgb(33,33,33);"/>
        </g>
        <g transform="matrix(0.171393,0,0,0.171393,56.2463,47.2754)">
            <circle cx="21" cy="40.333" r="1.5" style="fill:rgb(33,33,33);"/>
        </g>
        <g transform="matrix(0.171393,0,0,0.171393,56.2463,47.2754)">
            <circle cx="50" cy="40.333" r="1.5" style="fill:rgb(33,33,33);"/>
        </g>
        <g transform="matrix(0.171393,0,0,0.171393,56.2463,47.2754)">
            <circle cx="40.333" cy="40.333" r="1.5" style="fill:rgb(33,33,33);"/>
        </g>
        <g transform="matrix(0.171393,0,0,0.171393,56.2463,47.2754)">
            <circle cx="59.667" cy="40.333" r="1.5" style="fill:rgb(33,33,33);"/>
        </g>
        <g transform="matrix(0.171393,0,0,0.171393,56.2463,47.2754)">
            <circle cx="69.333" cy="40.333" r="1.5" style="fill:rgb(33,33,33);"/>
        </g>
        <g transform="matrix(0.171393,0,0,0.171393,56.2463,47.2754)">
            <circle cx="79" cy="40.333" r="1.5" style="fill:rgb(33,33,33);"/>
        </g>
        <g transform="matrix(0.171393,0,0,0.171393,56.2463,47.2754)">
            <circle cx="30.667" cy="50" r="1.5" style="fill:rgb(33,33,33);"/>
        </g>
        <g transform="matrix(0.171393,0,0,0.171393,56.2463,47.2754)">
            <circle cx="21" cy="50" r="1.5" style="fill:rgb(33,33,33);"/>
        </g>
        <g transform="matrix(0.171393,0,0,0.171393,56.2463,47.2754)">
            <circle cx="50" cy="50" r="1.5" style="fill:rgb(33,33,33);"/>
        </g>
        <g transform="matrix(0.171393,0,0,0.171393,56.2463,47.2754)">
            <circle cx="40.333" cy="50" r="1.5" style="fill:rgb(33,33,33);"/>
        </g>
        <g transform="matrix(0.171393,0,0,0.171393,56.2463,47.2754)">
            <circle cx="59.667" cy="50" r="1.5" style="fill:rgb(33,33,33);"/>
        </g>
        <g transform="matrix(0.171393,0,0,0.171393,56.2463,47.2754)">
            <circle cx="69.333" cy="50" r="1.5" style="fill:rgb(33,33,33);"/>
        </g>
        <g transform="matrix(0.171393,0,0,0.171393,56.2463,47.2754)">
            <circle cx="79" cy="50" r="1.5" style="fill:rgb(33,33,33);"/>
        </g>
        <g transform="matrix(0.171393,0,0,0.171393,56.2463,47.2754)">
            <circle cx="30.667" cy="59.667" r="1.5" style="fill:rgb(33,33,33);"/>
        </g>
        <g transform="matrix(0.171393,0,0,0.171393,56.2463,47.2754)">
            <circle cx="21" cy="59.667" r="1.5" style="fill:rgb(33,33,33);"/>
        </g>
        <g transform="matrix(0.171393,0,0,0.171393,56.2463,47.2754)">
            <circle cx="50" cy="59.667" r="1.5" style="fill:rgb(33,33,33);"/>
        </g>
        <g transform="matrix(0.171393,0,0,0.171393,56.2463,47.2754)">
            <circle cx="40.333" cy="59.667" r="1.5" style="fill:rgb(33,33,33);"/>
        </g>
        <g transform="matrix(0.171393,0,0,0.171393,56.2463,47.2754)">
            <circle cx="59.667" cy="59.667" r="1.5" style="fill:rgb(33,33,33);"/>
        </g>
        <g transform="matrix(0.171393,0,0,0.171393,56.2463,47.2754)">
            <circle cx="69.333" cy="59.667" r="1.5" style="fill:rgb(33,33,33);"/>
        </g>
        <g transform="matrix(0.171393,0,0,0.171393,56.2463,47.2754)">
            <circle cx="79" cy="59.667" r="1.5" style="fill:rgb(33,33,33);"/>
        </g>
        <g transform="matrix(0.171393,0,0,0.171393,56.2463,47.2754)">
            <circle cx="30.667" cy="21" r="1.5" style="fill:rgb(33,33,33);"/>
        </g>
        <g transform="matrix(0.171393,0,0,0.171393,56.2463,47.2754)">
            <circle cx="21" cy="21" r="1.5" style="fill:rgb(33,33,33);"/>
        </g>
        <g transform="matrix(0.171393,0,0,0.171393,56.2463,47.2754)">
            <circle cx="50" cy="21" r="1.5" style="fill:rgb(33,33,33);"/>
        </g>
        <g transform="matrix(0.171393,0,0,0.171393,56.2463,47.2754)">
            <circle cx="40.333" cy="21" r="1.5" style="fill:rgb(33,33,33);"/>
        </g>
        <g transform="matrix(0.171393,0,0,0.171393,56.2463,47.2754)">
            <circle cx="59.667" cy="21" r="1.5" style="fill:rgb(33,33,33);"/>
        </g>
        <g transform="matrix(0.171393,0,0,0.171393,56.2463,47.2754)">
            <circle cx="69.333" cy="21" r="1.5" style="fill:rgb(33,33,33);"/>
        </g>
        <g transform="matrix(0.171393,0,0,0.171393,56.2463,47.2754)">
            <circle cx="79" cy="21" r="1.5" style="fill:rgb(33,33,33);"/>
        </g>
        <g transform="matrix(0.171393,0,0,0.171393,67.7446,47.2754)">
            <circle cx="30.667" cy="30.667" r="1.5" style="fill:rgb(33,33,33);"/>
        </g>
        <g transform="matrix(0.171393,0,0,0.171393,67.7446,47.2754)">
            <circle cx="21" cy="30.667" r="1.5" style="fill:rgb(33,33,33);"/>
        </g>
        <g transform="matrix(0.171393,0,0,0.171393,67.7446,47.2754)">
            <circle cx="30.667" cy="40.333" r="1.5" style="fill:rgb(33,33,33);"/>
        </g>
        <g transform="matrix(0.171393,0,0,0.171393,67.7446,47.2754)">
            <circle cx="21" cy="40.333" r="1.5" style="fill:rgb(33,33,33);"/>
        </g>
        <g transform="matrix(0.171393,0,0,0.171393,67.7446,47.2754)">
            <circle cx="30.667" cy="50" r="1.5" style="fill:rgb(33,33,33);"/>
        </g>
        <g transform="matrix(0.171393,0,0,0.171393,67.7446,47.2754)">
            <circle cx="21" cy="50" r="1.5" style="fill:rgb(33,33,33);"/>
        </g>
        <g transform="matrix(0.171393,0,0,0.171393,67.7446,47.2754)">
            <circle cx="30.667" cy="59.667" r="1.5" style="fill:rgb(33,33,33);"/>
        </g>
        <g transform="matrix(0.171393,0,0,0.171393,67.7446,47.2754)">
            <circle cx="21" cy="59.667" r="1.5" style="fill:rgb(33,33,33);"/>
        </g>
        <g transform="matrix(0.171393,0,0,0.171393,67.7446,47.2754)">
            <circle cx="30.667" cy="21" r="1.5" style="fill:rgb(33,33,33);"/>
        </g>
        <g transform="matrix(0.171393,0,0,0.171393,67.7446,47.2754)">
            <circle cx="21" cy="21" r="1.5" style="fill:rgb(33,33,33);"/>
        </g>
    </g>
</svg>
