<?xml version="1.0" encoding="UTF-8" standalone="no"?>
<!DOCTYPE svg PUBLIC "-//W3C//DTD SVG 1.1//EN" "http://www.w3.org/Graphics/SVG/1.1/DTD/svg11.dtd">
<svg width="100%" height="100%" viewBox="0 0 260 366" version="1.1" xmlns="http://www.w3.org/2000/svg" xmlns:xlink="http://www.w3.org/1999/xlink" xml:space="preserve" style="fill-rule:evenodd;clip-rule:evenodd;stroke-linejoin:round;stroke-miterlimit:1.41421;">
    <g transform="matrix(4.16667,0,0,4.16667,-144.904,-14.8564)">
        <g transform="matrix(1,0,0,1,15.7868,-2.0234)">
            <path d="M34.9,83.9C34.8,83.9 34.8,84 34.7,84C34.6,84 34.9,83.4 34.6,83.5C34.5,83.6 34.4,83.7 34.5,83.5C34.4,83.6 34.7,83.5 34.5,83.2L34.4,83.4C34.5,83 34,82.9 34.1,83.3C34.1,83 33.8,83.1 33.6,83.2L33.5,83.2C33.4,83.4 33.5,83.4 33.5,83.5C33.6,83.5 33.7,83.4 33.7,83.2C33.7,83.3 33.8,83.6 33.6,83.6C33.6,83.8 33.2,83.5 33.5,83.8C33.3,83.7 32.9,84.1 33,84.3C33.1,84.7 33.2,84.3 33.3,84.5C33.3,84.4 33.4,84.1 33.6,83.9C33.5,84.4 33.9,84.4 34.1,84.3C34.1,84.3 34,84.3 34,84.2C34.3,84.2 34.5,84.3 34.6,84.6C34.7,84.8 34.7,84.8 34.6,84.8C34.5,84.9 34.5,84.9 34.6,85C34.3,84.5 34.2,85.6 34.6,85.3C34.7,85.4 34.3,85.5 34.3,85.5C34.4,85.4 34.4,85.3 34.2,85.3L34.1,85.5C34.3,85.7 35,85.5 34.9,85.2C34.9,85.5 35.2,85.7 35.5,85.8C35.4,85.8 35.2,85.8 35.1,85.7C35.1,85.9 35.4,86.1 35.5,85.9C35.4,86.3 35,86 34.8,85.9C34.7,85.9 34.2,85.9 34.2,85.9C34.4,86 34.7,86.4 34.9,86.4C34.9,86.5 34.4,86.8 34.8,86.9C34.4,86.9 34.5,87.8 34.8,87.9C35,87.7 35,87 35.3,87.2C35,87.2 35.2,87.5 35.1,87.5C35,87.7 35.4,87.9 35.2,87.9C35.1,87.8 35,87.9 35,88C35,88.1 35,88.1 35,88.2C35.1,88.3 35.3,88.3 35.4,88.3C35.4,88.4 35.3,88.4 35.4,88.5C35.3,88.5 35.1,88.4 35,88.4C34.9,88.5 35.4,88.8 35.5,88.8C35.3,88.8 34.9,88.5 34.8,88.8C34.8,88.9 35.1,89 35.2,88.9C35.2,89.1 35.3,89.1 35.5,89C35.5,89.1 35.5,89.2 35.4,89.2L35.4,89.3C35.3,89.2 35.3,89.2 35.2,89.2C35.6,89.8 35.5,89.3 35.8,89C35.7,89.2 35.7,89.3 35.9,89.3C35.7,89.4 35.5,89.4 35.7,89.7C35.6,89.6 35.3,89.6 35.4,89.8L35.5,89.7C35.5,89.9 35.5,89.9 35.6,90L35.6,89.9C35.7,90.1 35.8,90.1 35.8,89.9C35.9,90 36,90.4 36.1,90.5C36.1,90.5 35.8,90.2 35.8,90.3C35.8,90.6 36,90.5 36.1,90.8C36.2,90.6 36.1,90.7 36.3,90.7C36.2,91.1 36.5,91 36.6,91.2C36.6,91.2 36.7,90.8 36.8,90.8C36.5,91 36.7,90.7 36.5,90.6C36.6,90.6 37.3,90.8 37.3,90.9C37.3,90.9 37.2,90.9 37.1,90.9C37.3,91.3 37.5,91.5 37,91.6C37.4,91.3 36.9,91.1 36.9,91.1C36.8,91.1 37,91.3 37,91.3C37,91.4 36.9,91.4 36.8,91.4C36.9,91.1 36.4,91.3 36.4,91.4C36.3,91.3 36.3,91.3 36.2,91.2C36.3,91.4 36.4,91.9 36.5,92L36.4,92.1C36.5,92.1 36.6,92 36.6,91.9L36.7,92C36.9,92.1 36.4,91.6 37,91.8C36.9,91.8 36.9,91.8 36.8,91.8C37.1,91.8 36.6,91.9 36.8,92.1C36.7,92.1 36.6,92.1 36.5,92.1L36.8,92.2C36.7,92.3 36.7,92.3 36.6,92.4C36.7,92.5 36.8,92.6 36.9,92.5L36.8,92.5C37,92.4 37.1,92.2 37.1,91.9L36.9,92C36.9,91.7 37.1,91.8 37.4,91.7C37.3,91.9 37.4,91.7 37.4,91.9C37.4,91.9 38,91.6 38.2,91.8C38.1,91.7 37.3,92.1 37.2,92.2C37.2,92.1 36.8,92.5 37.3,92.6C37.2,92.7 37.2,92.6 37.3,92.8C37.2,92.7 36.9,92.7 36.8,92.7C36.9,92.8 37.1,92.9 37.3,93L37.3,92.9C37.4,93 37.5,93 37.7,93C37.6,92.9 37.5,92.8 37.4,92.8C37.6,92.8 37.5,92.7 37.5,92.6C37.5,92.6 37.7,92.6 37.8,92.6C37.8,92.5 37.5,92.5 37.5,92.5C37.7,92.4 37.8,92.5 38,92.4C38.2,92.3 38.3,92 38.5,92C38.9,92.1 37.9,92.9 37.8,92.9C37.9,92.8 37.9,92.7 37.7,92.7C37.5,92.7 38.2,93.4 38.5,93.3C38.8,93.2 38.8,92.7 38.8,92.4C38.8,91.8 38.6,91.9 39.2,91.6C39.6,91.4 40.2,91 40.7,91.3C40.8,90.8 40,90.2 39.6,90.4C40,90.2 40.1,90.5 40.1,90C40.1,89.8 39.9,89.7 39.8,89.5C39.7,88.9 40.7,88.5 40,87.9C40.2,88.1 40.4,88.5 40.8,88.2C41.1,88 40.9,87.4 41,87.2C41.2,86.7 42,85.6 42.5,85.4C42.4,85.1 42.1,85.2 41.9,85.3C42.2,85.2 42.6,84.9 42.5,84.6C42.4,84.2 41.8,84.2 41.4,84.1C40.3,83.7 40.6,82.4 41.4,81.8C41.7,81.6 42.2,81.7 42.4,81.5L42.7,80.8C42.8,80.4 42.6,80.1 42.7,79.7C42.8,79.2 43.4,79.2 43.6,78.8C43.2,78.9 42.7,78 43.2,78.2C43.5,78.3 43.6,78.7 43.9,78.7C44.5,78.7 44.4,77.7 43.6,77.9C43.6,78 43.8,78 43.8,78.1C43.7,78.3 43.5,78.2 43.4,78.2C43.4,77.9 43.2,78.1 43,77.9C42.8,77.8 42.9,77.7 42.8,77.4C42.8,77.2 42.7,76.3 42.9,76.2C43.2,75.9 44.6,76.8 45.2,76.5C45.8,76.2 45.5,75.9 45.5,75.5C45.5,75.1 45.8,74.5 45.7,74.2C45.6,73.9 45,73.7 45.7,73.5C46,73.4 46.5,73.7 46.9,73.7C48,73.7 49.4,73.3 50.3,72.7C50.8,72.3 52.2,71.1 51.5,70.3C51.4,70.1 51.2,70.3 51,70C50.8,69.8 50.9,69.6 50.9,69.4C50.9,68.8 51,68.7 50.4,68.3C50,68 49.7,68 49.6,67.4C49.6,67.3 49.7,67 49.7,66.8C49.7,66.5 49.5,66.2 49.8,66C49.7,66.1 49.8,66.7 49.8,66.8C49.9,67.2 50,67.5 50.4,67.6C50.8,67.8 51.3,67.8 51.7,68C52.1,68.2 52.5,68.3 53,68.3C54,68.3 54.4,68 55.1,67.2C55.7,66.5 56.3,65.8 56.8,65C57.3,64.3 58.2,64 58.7,63.3C59.4,62.3 59.9,61.4 60.8,60.5C61.6,59.7 61.6,58.7 61.4,57.6C61.3,56.8 61.7,56.6 62.1,56.2C62.1,56.2 62,56.3 62.1,56.2C62.1,56.2 62,56.3 62.1,56.2C62.1,56 62.5,56.1 62.4,55.7C62.3,55.4 64.5,54.7 64.4,54.3C64.5,54.7 65.8,54 66,54C66.5,53.8 67,53.7 67.5,53.5C68.3,53.3 69.4,53.9 70.1,53.3C70.1,53.3 71.3,52.2 71.4,52C71.7,51.5 71.9,51 72.2,50.4C72.5,49.9 73,49.3 73.3,48.8C73.4,48.5 73.4,48.1 73.5,47.7C73.6,47.4 73.9,47.2 74,47C74.6,45.9 75,42.4 74.9,41.3C74.9,41.3 75.1,41.1 75.2,40.9C75.3,40.8 75.3,40.6 75.4,40.5C75.2,40.5 75.2,40.4 75.3,40.2C75.3,40.6 75.5,40.3 75.5,40.1C75.6,40.3 75.8,40.5 75.6,40.7C76.5,40.7 77.3,38.7 77.3,38.7C77.6,38.8 77.8,38 77.7,37.9C77.8,37.9 77.9,38 77.8,38.2C78,37.9 79.6,36.7 79.6,36.8C80.2,36.5 80.7,35.7 80.9,35C81,34.7 80.9,34.3 81,34C81,33.8 81.2,33.6 81.2,33.6C81.2,33.6 81.2,33.8 81.2,33.6C81.2,33.5 81.2,33.8 81.2,33.6C81.2,33.5 81.2,33.8 81.2,33.6C81.2,33.5 81.2,33.8 81.2,33.6C81.3,33 81,31.7 80.8,31.3C80.5,30.7 79.2,30.6 79.2,30.6C78,30.3 77.4,29.1 76.5,28.4C75.4,27.5 74.4,27 73,27C73,27.1 70.7,26.1 70.4,26.1C70.2,26.1 69.2,26.2 69.2,26.4C69.2,26.2 69.4,26.1 69.5,26C68.9,25.9 68.9,26.8 68.4,27.1C68.4,26.9 68.8,25.8 68.9,26C68.8,25.9 68.5,25.1 68.4,24.9C68.4,24.8 68.2,24.9 68.2,24.8C68,24.5 67.9,24.9 67.7,25C67.6,25 67.7,24.5 67.7,24.5C67.6,24.5 67.2,24.5 67.3,24.5C67.3,24.4 67.3,24.3 67.2,24.2C67.2,24.3 67.1,24.4 67.1,24.4C67.2,24.5 66.8,24 66.5,24.2C66.6,24.1 66.6,24 66.6,23.9C66.2,24.2 66.1,23.8 65.7,23.6C65.1,23.2 64.1,23.3 63.7,23.9C63.8,23.7 63.4,24.5 63.5,24.7C63,24 62.2,25.4 62,25.8C62,25.7 62.2,24.7 62.3,24.7C62.1,24.8 61.7,25 61.5,25C61.3,25 60.8,24.9 60.8,24.9C60.7,24.9 60.6,24.8 60.5,24.8C59.9,24.5 60.6,23.7 59.8,23.8C59.4,23.9 59.1,24.2 58.7,24.4C58.3,24.5 58,24.4 57.6,24.4C58,24.2 58.5,24.2 58.8,23.9C59.2,23.6 59.3,23 59.6,22.6C60,22.2 60.5,21.8 60.9,21.4C61.2,21.2 61.4,21 61.4,20.6C61.5,19.8 60.5,19.9 60.2,19.5L60.3,19.6C60.3,19.6 60,18.1 60,18C59.8,17.3 59.6,16.8 59,16.4C58.4,15.9 57.7,15.5 57,15.1C56.8,15 56.6,14.8 56.4,14.8C55.7,14.6 55.1,14.5 54.5,14.5C54.2,14.5 53,14.1 53.2,14.7C53.2,14.3 52.5,14.3 52.2,14.3C51.6,14.3 51.7,14.6 51.3,14.9C51.4,14.7 51.3,13.5 50.9,13.9C50.8,13.6 50.4,13.2 50.1,13.2C49.6,13.2 49.7,13.6 49.3,13.8C50.1,12.4 48.7,11.6 47.7,11.2C47.2,11 47,10.9 46.4,11C46.1,11.1 45.4,11.3 45.2,10.9C45.8,10.9 46.6,10.1 46,9.7C45.8,9.6 45.4,9.4 45.2,9.3C45.1,9.2 44.8,9.1 44.7,9.2C44.8,8.7 44.8,9 44.6,9C44.5,8.8 44.5,8.6 44.3,8.5C44.2,8.4 44,8.5 44,8.5C43.9,8.5 43.6,8.4 43.8,8.1C44,7.8 44.9,8 45.2,7.6C44.4,7.7 43.6,7.7 42.8,7.7C42.7,7.7 41.9,7.8 41.9,7.8C42,8 42.5,7.8 42.7,7.9C41.8,8.2 40.1,8.2 39.4,7.8C38.7,7.4 38,8 37.3,8C37,8 36.7,8 36.5,7.8C36.3,7.7 36.4,7.4 36.4,7.4C36.1,6.5 35.1,7.1 34.5,6.6C34.3,6.4 34.3,5.9 34.1,5.8C33.6,5.6 33.8,6.4 33.7,6.5C33.8,6.6 32.9,7.2 32.4,7.3C31.7,7.5 31.9,7.7 32.2,8.3C32.4,8.7 32.8,9.4 32.2,9.8C32,9.9 31.4,9.7 31.3,9.3C31.2,9.3 31.4,8.7 31.6,8.3C31.7,8 31.6,7.4 31.8,7.4C30.9,6.9 31.6,6.8 32.1,6.5C32.6,6.1 32.4,5.5 31.9,5.6C31.7,5.7 31.5,6 31.5,5.8C31.2,5.8 30.9,6.3 30.7,6.5C30.2,6.8 29.7,7.1 29.1,7.1C28.7,7.2 28.5,7.1 28.3,7.4C28.2,7.5 27.4,7.5 27,7.9C26.7,8.1 26.6,8.5 26.3,8.8C26.4,8.7 26.4,9.6 26.4,9.5C26.4,9.6 26.2,9.7 26.1,9.8C25.6,10.1 24.5,11 24.6,11C24.3,10.9 24,10.9 24,10.9C23.7,11.2 24.2,11.6 24.3,11.8C24.1,11.8 23.7,12.2 23.6,12.2C23.3,12.4 23.3,12.6 23.4,13C23.4,13.1 24.1,14.1 23.8,14C23.8,14.2 24.1,14.3 24.1,14.6C24.1,14.8 23.9,14.9 23.7,15.1C24.4,15.1 23.7,16.6 24.1,16.7C23.9,16.7 23.8,17 23.9,17.1C24,17.2 24.2,17.2 24.1,17.3L24.2,17.4C24.2,17.4 23.7,18.5 23.5,18.6C23.5,18.6 23.6,18.8 23.4,18.9C23.1,19.1 22.8,18.9 22.5,19.2C22.4,19.3 22.4,19.5 22.3,19.6C22.4,19.7 22.4,19.8 22.4,20C22.3,20.1 22.2,20.1 22.1,20.1C21.9,20.4 22.1,20.7 22,20.9C21.8,21.2 20.9,21.1 21,21.5C20.6,21 20.5,22.2 20.4,22.4C20.3,22.7 19.5,23.5 20.2,23.6C19.6,23.3 19.5,24.5 19.6,24.7C19.6,24.9 19.8,25.9 19.3,25.7C19.4,25.9 20,26.3 20.2,26.3C20.5,26.3 20.5,25.9 20.7,25.7C20.7,25.8 20.6,25.8 20.6,25.9L20.7,25.9C20.6,25.9 20.6,26 20.6,26.1C20.9,25.9 20.6,25.5 20.9,25.3C20.6,25.6 20.9,26 20.8,26.3C20.8,26.8 20.7,26.8 20.4,27.1C20,27.5 19.1,28 19,28.7C18.9,29.3 19.6,29.7 19.5,30.3C19.5,30.7 19.2,30.7 19.3,31C19.4,31.3 20.2,31.4 20.5,31.5C22.3,32.5 23.1,35.2 24.2,36.9C24.7,37.7 25.2,38.4 25.8,39.2C26.5,40 26.1,40.9 26.8,41.7C28,43.1 29.9,43.4 31.5,44.1C32.4,44.5 32.9,45.2 33.7,45.7C34.5,46.3 34.6,47 34.7,48C34.8,49.2 35,50.5 34.8,51.7C34.7,52.1 34.4,52.6 34.4,53.1C34.4,53.1 34.6,53.4 34.6,53.5C34.8,54 34.7,54.6 34.7,55.1C34.7,56.2 34.6,57.5 34.3,58.6C34.1,59.2 33.9,59.9 34,60.5C34.1,61.1 34.3,61.4 34.1,62C33.8,63.1 34.2,64 34.3,65.1C34.4,66.4 34.1,67.6 33.8,68.8C33.8,69 33.3,70.7 33.3,70.7C33.3,70.8 33.1,71.8 32.9,71.5C32.9,71.6 32.9,72.2 32.9,72.3C33,72.7 33.2,73.1 33.3,73.5C33.3,73.6 33.7,75.1 33.6,75.1C33.1,75.1 33.2,75.8 33.2,76.3C33.2,76.4 33.4,77.6 34,77.6C34.2,77.6 34.2,77.3 34.3,77.3C34.5,77.2 35,77.2 35,77.3C34.9,77.4 34.7,77.4 34.7,77.5C34.7,77.6 34.5,78.2 34.9,77.8C35,77.8 35.1,78.4 35.1,78.4C34.6,78.1 34.9,79.1 34.9,79.2C34.6,79 34.7,80.1 34.8,80.1C35.1,80 34.7,80.2 34.7,80.5C34.7,80.7 35.2,81.2 35.3,80.8C35.3,81.4 34.8,81.7 34.7,82.1C34.9,82.8 34.9,83.3 34.9,83.9ZM35.6,43.3C35.7,43.1 35.1,42.8 35.1,42.8C35.1,42.8 35.1,43 35,43C34.8,42.9 34.9,42.6 34.9,42.5C35,42.6 35.1,42.6 35.1,42.7C35.1,42.5 34.9,42.2 34.9,42.1C34.9,42.1 35,42 35.1,42C35.2,42 35.8,42.4 35.8,42.6C35.9,42.8 36.2,42.9 36.4,42.9C36.4,43 36.2,43 36.2,43C36.2,43 36.3,43.1 36.4,43.1C36.5,43.1 36.6,43.2 36.6,43.3C36.6,43.4 36.3,43.5 36.2,43.5C36.2,43.6 36.2,43.7 36.2,43.8C36.1,43.9 36,43.4 36.1,43.3C36.1,43.4 35.8,43.4 35.6,43.3Z" style="fill:rgb(35,162,160);fill-rule:nonzero;"/>
        </g>
    </g>
</svg>
