<?xml version="1.0" encoding="UTF-8" standalone="no"?>
<!DOCTYPE svg PUBLIC "-//W3C//DTD SVG 1.1//EN" "http://www.w3.org/Graphics/SVG/1.1/DTD/svg11.dtd">
<svg width="100%" height="100%" viewBox="0 0 1225 1225" version="1.1" xmlns="http://www.w3.org/2000/svg" xmlns:xlink="http://www.w3.org/1999/xlink" xml:space="preserve" style="fill-rule:evenodd;clip-rule:evenodd;stroke-linejoin:round;stroke-miterlimit:1.41421;">
    <g transform="matrix(4.16667,0,0,4.16667,-81.25,-81.25)">
        <path d="M92,79C97,77 104,76 112,76C113,74 114,72 115,71C120,66 128,66 133,71C136,74 137,78 137,82C137,83 138,83 139,84C150,91 155,94 159,96L171,93L156,50L147,39C146,40 143,40 142,39C140,37 140,34 142,32C144,31 146,31 148,32C149,33 150,35 149,37L158,46L160,45L154,31C153,31 152,31 151,30C150,28 150,25 151,24C153,22 156,22 158,24C159,25 159,28 158,30C159,32 163,40 165,42C165,39 165,32 165,28C164,28 164,28 163,27C162,26 162,23 163,21C165,19 168,19 170,21C171,23 171,26 170,27L169,28L172,39L200,98C200,98 211,117 186,120C185,120 185,120 184,120C203,140 216,164 216,164C216,164 215,133 230,131C246,130 256,142 262,152C267,161 268,163 268,163L276,140L271,122C271,122 270,121 269,121C267,119 267,115 269,113C271,111 275,111 277,113C279,115 279,118 277,120L281,137L282,137L282,118C280,116 280,113 282,111C284,109 287,109 289,111C291,113 291,116 289,118C289,119 288,119 287,119L286,138L294,122C293,120 293,117 295,115C297,113 300,113 302,115C304,117 304,121 302,123C301,124 299,124 298,124L291,139L293,139L304,130C303,128 303,126 305,124C307,122 310,122 312,124C314,126 314,129 312,131C310,133 308,133 306,132L295,144L282,189C282,189 278,196 270,197C262,198 258,191 254,185C250,179 242,172 242,172C242,172 238,204 235,217C233,224 231,228 229,229C228,231 224,233 217,235C204,238 172,242 172,242C172,242 179,250 185,254C191,258 198,262 197,270C196,278 189,282 189,282L144,295L132,306C133,308 133,310 131,312C129,314 126,314 124,312C122,310 122,307 124,305C126,303 128,303 130,304L139,293L139,291L124,298C124,299 124,301 123,302C121,304 117,304 115,302C113,300 113,297 115,295C117,293 120,293 122,294L138,286L119,287C119,288 119,289 118,289C116,291 113,291 111,289C109,287 109,284 111,282C113,280 116,280 118,282L137,282L137,281L120,277C118,279 115,279 113,277C111,275 111,271 113,269C115,267 119,267 121,269C121,270 122,271 122,271L140,276L163,268C163,268 161,267 152,262C142,256 130,246 131,230C133,215 164,216 164,216C164,216 140,203 120,184C120,185 120,185 120,186C117,211 98,200 98,200L39,172L28,169L27,170C26,171 23,171 21,170C19,168 19,165 21,163C23,162 26,162 27,163C28,164 28,164 28,165C32,165 39,165 42,165C40,163 32,159 30,158C28,159 25,159 24,158C22,156 22,153 24,151C25,150 28,150 30,151C31,152 31,153 31,154L45,160L46,158L37,149C35,150 33,149 32,148C31,146 31,144 32,142C34,140 37,140 39,142C40,143 40,146 39,147L50,156L93,171L96,159C94,155 91,150 84,139C83,138 83,137 82,137C78,137 74,136 71,133C66,128 66,120 71,115C72,114 74,113 76,112C76,104 77,97 79,92C77,88 77,83 80,80C83,77 88,77 92,79Z" style="fill:rgb(35,162,160);"/>
    </g>
</svg>
